<mxfile host="65bd71144e" pages="2">
    <diagram id="8xbFUNse0DEjHxCNl1ls" name="Navigation">
        <mxGraphModel dx="522" dy="331" grid="1" gridSize="10" guides="1" tooltips="1" connect="1" arrows="1" fold="1" page="1" pageScale="1" pageWidth="850" pageHeight="1100" math="0" shadow="0">
            <root>
                <mxCell id="0"/>
                <mxCell id="1" parent="0"/>
                <mxCell id="c_TQoq-tJy3BD-cnthU9-1" value="Homepage" style="rounded=1;whiteSpace=wrap;html=1;" parent="1" vertex="1">
                    <mxGeometry x="356" y="20" width="85" height="40" as="geometry"/>
                </mxCell>
                <mxCell id="c_TQoq-tJy3BD-cnthU9-2" value="" style="endArrow=none;html=1;rounded=0;" parent="1" edge="1">
                    <mxGeometry width="50" height="50" relative="1" as="geometry">
                        <mxPoint x="398" y="110" as="sourcePoint"/>
                        <mxPoint x="398" y="60" as="targetPoint"/>
                    </mxGeometry>
                </mxCell>
                <mxCell id="c_TQoq-tJy3BD-cnthU9-3" value="" style="endArrow=none;html=1;rounded=0;" parent="1" edge="1">
                    <mxGeometry width="50" height="50" relative="1" as="geometry">
                        <mxPoint x="280" y="110" as="sourcePoint"/>
                        <mxPoint x="520" y="110" as="targetPoint"/>
                    </mxGeometry>
                </mxCell>
                <mxCell id="c_TQoq-tJy3BD-cnthU9-4" value="Signup" style="rounded=1;whiteSpace=wrap;html=1;" parent="1" vertex="1">
                    <mxGeometry x="474" y="140" width="85" height="40" as="geometry"/>
                </mxCell>
                <mxCell id="c_TQoq-tJy3BD-cnthU9-5" value="Login" style="rounded=1;whiteSpace=wrap;html=1;" parent="1" vertex="1">
                    <mxGeometry x="356" y="140" width="85" height="40" as="geometry"/>
                </mxCell>
                <mxCell id="c_TQoq-tJy3BD-cnthU9-6" value="About" style="rounded=1;whiteSpace=wrap;html=1;" parent="1" vertex="1">
                    <mxGeometry x="240" y="140" width="85" height="40" as="geometry"/>
                </mxCell>
                <mxCell id="c_TQoq-tJy3BD-cnthU9-10" value="" style="endArrow=none;html=1;rounded=0;" parent="1" edge="1">
                    <mxGeometry width="50" height="50" relative="1" as="geometry">
                        <mxPoint x="280" y="140" as="sourcePoint"/>
                        <mxPoint x="280" y="110" as="targetPoint"/>
                    </mxGeometry>
                </mxCell>
                <mxCell id="c_TQoq-tJy3BD-cnthU9-11" value="" style="endArrow=none;html=1;rounded=0;" parent="1" edge="1">
                    <mxGeometry width="50" height="50" relative="1" as="geometry">
                        <mxPoint x="398" y="140" as="sourcePoint"/>
                        <mxPoint x="398" y="110" as="targetPoint"/>
                    </mxGeometry>
                </mxCell>
                <mxCell id="c_TQoq-tJy3BD-cnthU9-12" value="" style="endArrow=none;html=1;rounded=0;" parent="1" edge="1">
                    <mxGeometry width="50" height="50" relative="1" as="geometry">
                        <mxPoint x="519" y="140" as="sourcePoint"/>
                        <mxPoint x="519" y="110" as="targetPoint"/>
                    </mxGeometry>
                </mxCell>
                <mxCell id="c_TQoq-tJy3BD-cnthU9-13" value="" style="endArrow=none;html=1;rounded=0;" parent="1" edge="1">
                    <mxGeometry width="50" height="50" relative="1" as="geometry">
                        <mxPoint x="398.1" y="220" as="sourcePoint"/>
                        <mxPoint x="398.1" y="180" as="targetPoint"/>
                    </mxGeometry>
                </mxCell>
                <mxCell id="c_TQoq-tJy3BD-cnthU9-14" value="" style="endArrow=none;html=1;rounded=0;" parent="1" edge="1">
                    <mxGeometry width="50" height="50" relative="1" as="geometry">
                        <mxPoint x="520" y="220" as="sourcePoint"/>
                        <mxPoint x="520" y="180" as="targetPoint"/>
                    </mxGeometry>
                </mxCell>
                <mxCell id="c_TQoq-tJy3BD-cnthU9-15" value="" style="endArrow=none;html=1;rounded=0;" parent="1" edge="1">
                    <mxGeometry width="50" height="50" relative="1" as="geometry">
                        <mxPoint x="399" y="220" as="sourcePoint"/>
                        <mxPoint x="519" y="220" as="targetPoint"/>
                    </mxGeometry>
                </mxCell>
                <mxCell id="c_TQoq-tJy3BD-cnthU9-16" value="" style="endArrow=none;html=1;rounded=0;" parent="1" edge="1">
                    <mxGeometry width="50" height="50" relative="1" as="geometry">
                        <mxPoint x="460" y="260" as="sourcePoint"/>
                        <mxPoint x="460" y="220" as="targetPoint"/>
                    </mxGeometry>
                </mxCell>
                <mxCell id="c_TQoq-tJy3BD-cnthU9-17" value="Recipes" style="rounded=1;whiteSpace=wrap;html=1;" parent="1" vertex="1">
                    <mxGeometry x="420" y="280" width="85" height="40" as="geometry"/>
                </mxCell>
                <mxCell id="c_TQoq-tJy3BD-cnthU9-18" value="Users Recipe Database" style="rounded=1;whiteSpace=wrap;html=1;" parent="1" vertex="1">
                    <mxGeometry x="120" y="370" width="85" height="40" as="geometry"/>
                </mxCell>
                <mxCell id="c_TQoq-tJy3BD-cnthU9-19" value="Create New Recipe" style="rounded=1;whiteSpace=wrap;html=1;" parent="1" vertex="1">
                    <mxGeometry x="290" y="370" width="85" height="40" as="geometry"/>
                </mxCell>
                <mxCell id="c_TQoq-tJy3BD-cnthU9-20" value="" style="endArrow=none;html=1;rounded=0;" parent="1" edge="1">
                    <mxGeometry width="50" height="50" relative="1" as="geometry">
                        <mxPoint x="160" y="350" as="sourcePoint"/>
                        <mxPoint x="460" y="350" as="targetPoint"/>
                    </mxGeometry>
                </mxCell>
                <mxCell id="c_TQoq-tJy3BD-cnthU9-21" value="" style="endArrow=none;html=1;rounded=0;" parent="1" edge="1">
                    <mxGeometry width="50" height="50" relative="1" as="geometry">
                        <mxPoint x="460" y="280" as="sourcePoint"/>
                        <mxPoint x="460" y="260" as="targetPoint"/>
                    </mxGeometry>
                </mxCell>
                <mxCell id="c_TQoq-tJy3BD-cnthU9-22" value="" style="endArrow=none;html=1;rounded=0;" parent="1" edge="1">
                    <mxGeometry width="50" height="50" relative="1" as="geometry">
                        <mxPoint x="160" y="370" as="sourcePoint"/>
                        <mxPoint x="160" y="350" as="targetPoint"/>
                    </mxGeometry>
                </mxCell>
                <mxCell id="MBUd6jzcdOQxM8RM11eo-1" value="" style="endArrow=none;html=1;rounded=0;" parent="1" edge="1">
                    <mxGeometry width="50" height="50" relative="1" as="geometry">
                        <mxPoint x="460" y="350" as="sourcePoint"/>
                        <mxPoint x="460" y="320" as="targetPoint"/>
                    </mxGeometry>
                </mxCell>
                <mxCell id="MBUd6jzcdOQxM8RM11eo-2" value="Logout" style="rounded=1;whiteSpace=wrap;html=1;" parent="1" vertex="1">
                    <mxGeometry x="670" y="280" width="85" height="40" as="geometry"/>
                </mxCell>
                <mxCell id="MBUd6jzcdOQxM8RM11eo-3" value="Help" style="rounded=1;whiteSpace=wrap;html=1;" parent="1" vertex="1">
                    <mxGeometry x="290" y="280" width="85" height="40" as="geometry"/>
                </mxCell>
                <mxCell id="MBUd6jzcdOQxM8RM11eo-4" value="" style="endArrow=none;html=1;rounded=0;exitX=1;exitY=0.5;exitDx=0;exitDy=0;" parent="1" source="c_TQoq-tJy3BD-cnthU9-17" edge="1">
                    <mxGeometry width="50" height="50" relative="1" as="geometry">
                        <mxPoint x="510" y="300" as="sourcePoint"/>
                        <mxPoint x="550" y="300" as="targetPoint"/>
                    </mxGeometry>
                </mxCell>
                <mxCell id="MBUd6jzcdOQxM8RM11eo-5" value="" style="endArrow=none;html=1;rounded=0;exitX=1;exitY=0.5;exitDx=0;exitDy=0;" parent="1" edge="1">
                    <mxGeometry width="50" height="50" relative="1" as="geometry">
                        <mxPoint x="375.9999999999999" y="299.81" as="sourcePoint"/>
                        <mxPoint x="420.9999999999999" y="299.81" as="targetPoint"/>
                    </mxGeometry>
                </mxCell>
                <mxCell id="MBUd6jzcdOQxM8RM11eo-6" value="" style="endArrow=none;html=1;rounded=0;" parent="1" edge="1">
                    <mxGeometry width="50" height="50" relative="1" as="geometry">
                        <mxPoint x="334.36" y="370" as="sourcePoint"/>
                        <mxPoint x="334.36" y="350" as="targetPoint"/>
                    </mxGeometry>
                </mxCell>
                <mxCell id="MBUd6jzcdOQxM8RM11eo-7" value="Pantry" style="rounded=1;whiteSpace=wrap;html=1;" parent="1" vertex="1">
                    <mxGeometry x="550" y="280" width="85" height="40" as="geometry"/>
                </mxCell>
                <mxCell id="MBUd6jzcdOQxM8RM11eo-10" value="" style="endArrow=none;html=1;rounded=0;entryX=0;entryY=0.5;entryDx=0;entryDy=0;" parent="1" target="MBUd6jzcdOQxM8RM11eo-2" edge="1">
                    <mxGeometry width="50" height="50" relative="1" as="geometry">
                        <mxPoint x="635" y="299.73" as="sourcePoint"/>
                        <mxPoint x="665" y="299.73" as="targetPoint"/>
                    </mxGeometry>
                </mxCell>
                <mxCell id="MBUd6jzcdOQxM8RM11eo-11" value="Users Pantry Database" style="rounded=1;whiteSpace=wrap;html=1;" parent="1" vertex="1">
                    <mxGeometry x="480" y="370" width="85" height="40" as="geometry"/>
                </mxCell>
                <mxCell id="MBUd6jzcdOQxM8RM11eo-16" value="Add Ingredients" style="rounded=1;whiteSpace=wrap;html=1;" parent="1" vertex="1">
                    <mxGeometry x="639" y="370" width="85" height="40" as="geometry"/>
                </mxCell>
                <mxCell id="MBUd6jzcdOQxM8RM11eo-17" value="" style="endArrow=none;html=1;rounded=0;" parent="1" edge="1">
                    <mxGeometry width="50" height="50" relative="1" as="geometry">
                        <mxPoint x="520" y="350" as="sourcePoint"/>
                        <mxPoint x="680" y="350" as="targetPoint"/>
                    </mxGeometry>
                </mxCell>
                <mxCell id="MBUd6jzcdOQxM8RM11eo-18" value="" style="endArrow=none;html=1;rounded=0;exitX=0.59;exitY=-0.004;exitDx=0;exitDy=0;exitPerimeter=0;" parent="1" edge="1">
                    <mxGeometry width="50" height="50" relative="1" as="geometry">
                        <mxPoint x="680.15" y="369.84" as="sourcePoint"/>
                        <mxPoint x="680" y="350" as="targetPoint"/>
                    </mxGeometry>
                </mxCell>
                <mxCell id="MBUd6jzcdOQxM8RM11eo-19" value="" style="endArrow=none;html=1;rounded=0;exitX=0.59;exitY=-0.004;exitDx=0;exitDy=0;exitPerimeter=0;" parent="1" edge="1">
                    <mxGeometry width="50" height="50" relative="1" as="geometry">
                        <mxPoint x="520.47" y="369.99999999999994" as="sourcePoint"/>
                        <mxPoint x="520.3199999999999" y="350.16" as="targetPoint"/>
                    </mxGeometry>
                </mxCell>
                <mxCell id="MBUd6jzcdOQxM8RM11eo-20" value="" style="endArrow=none;html=1;rounded=0;" parent="1" edge="1">
                    <mxGeometry width="50" height="50" relative="1" as="geometry">
                        <mxPoint x="594" y="350" as="sourcePoint"/>
                        <mxPoint x="594" y="320" as="targetPoint"/>
                    </mxGeometry>
                </mxCell>
            </root>
        </mxGraphModel>
    </diagram>
    <diagram id="eMAwt1Adjr6_dOTvxcgu" name="Tables">
        <mxGraphModel dx="1056" dy="736" grid="1" gridSize="10" guides="1" tooltips="1" connect="1" arrows="1" fold="1" page="1" pageScale="1" pageWidth="850" pageHeight="1100" math="0" shadow="0">
            <root>
                <mxCell id="rhQrLHCwIaUlwDGyADpL-0"/>
                <mxCell id="rhQrLHCwIaUlwDGyADpL-1" parent="rhQrLHCwIaUlwDGyADpL-0"/>
                <mxCell id="WXKata1R8pEVIwSQPJwj-0" value="Users Table" style="rounded=0;whiteSpace=wrap;html=1;" parent="rhQrLHCwIaUlwDGyADpL-1" vertex="1">
                    <mxGeometry x="40" y="60" width="120" height="60" as="geometry"/>
                </mxCell>
                <mxCell id="WXKata1R8pEVIwSQPJwj-1" value="Ingredients Table" style="rounded=0;whiteSpace=wrap;html=1;" parent="rhQrLHCwIaUlwDGyADpL-1" vertex="1">
                    <mxGeometry x="330" y="60" width="120" height="60" as="geometry"/>
                </mxCell>
                <mxCell id="WXKata1R8pEVIwSQPJwj-2" value="Recipes" style="rounded=0;whiteSpace=wrap;html=1;" parent="rhQrLHCwIaUlwDGyADpL-1" vertex="1">
                    <mxGeometry x="610" y="60" width="120" height="60" as="geometry"/>
                </mxCell>
                <mxCell id="4h8rs_L_jS9KQ1FpoGbV-1" value="Users Table" style="rounded=0;whiteSpace=wrap;html=1;" vertex="1" parent="rhQrLHCwIaUlwDGyADpL-1">
                    <mxGeometry x="180" y="240" width="120" height="60" as="geometry"/>
                </mxCell>
            </root>
        </mxGraphModel>
    </diagram>
</mxfile>